<mxfile host="app.diagrams.net" agent="Mozilla/5.0 (Windows NT 10.0; Win64; x64) AppleWebKit/537.36 (KHTML, like Gecko) Chrome/139.0.0.0 Safari/537.36" version="28.0.9">
  <diagram name="Page-1" id="yu-T_ST--JRih1hHIQLr">
    <mxGraphModel dx="868" dy="439" grid="1" gridSize="10" guides="1" tooltips="1" connect="1" arrows="1" fold="1" page="1" pageScale="1" pageWidth="850" pageHeight="1100" math="0" shadow="0">
      <root>
        <mxCell id="0" />
        <mxCell id="1" parent="0" />
        <mxCell id="yM5GT_XoTkScu3wlVGMv-10" style="edgeStyle=orthogonalEdgeStyle;rounded=0;orthogonalLoop=1;jettySize=auto;html=1;entryX=0.25;entryY=0;entryDx=0;entryDy=0;" edge="1" parent="1" source="yM5GT_XoTkScu3wlVGMv-1" target="yM5GT_XoTkScu3wlVGMv-4">
          <mxGeometry relative="1" as="geometry" />
        </mxCell>
        <mxCell id="yM5GT_XoTkScu3wlVGMv-1" value="RTC (Real Time Clock)" style="rounded=0;whiteSpace=wrap;html=1;" vertex="1" parent="1">
          <mxGeometry x="250" y="50" width="90" height="50" as="geometry" />
        </mxCell>
        <mxCell id="yM5GT_XoTkScu3wlVGMv-11" style="edgeStyle=orthogonalEdgeStyle;rounded=0;orthogonalLoop=1;jettySize=auto;html=1;exitX=0.5;exitY=1;exitDx=0;exitDy=0;entryX=0.75;entryY=0;entryDx=0;entryDy=0;" edge="1" parent="1" source="yM5GT_XoTkScu3wlVGMv-2" target="yM5GT_XoTkScu3wlVGMv-4">
          <mxGeometry relative="1" as="geometry" />
        </mxCell>
        <mxCell id="yM5GT_XoTkScu3wlVGMv-2" value="Manual Override Button" style="rounded=0;whiteSpace=wrap;html=1;" vertex="1" parent="1">
          <mxGeometry x="380" y="50" width="90" height="50" as="geometry" />
        </mxCell>
        <mxCell id="yM5GT_XoTkScu3wlVGMv-23" style="edgeStyle=orthogonalEdgeStyle;rounded=0;orthogonalLoop=1;jettySize=auto;html=1;entryX=0.57;entryY=-0.057;entryDx=0;entryDy=0;entryPerimeter=0;" edge="1" parent="1" target="yM5GT_XoTkScu3wlVGMv-16">
          <mxGeometry relative="1" as="geometry">
            <mxPoint x="281" y="180" as="sourcePoint" />
          </mxGeometry>
        </mxCell>
        <mxCell id="yM5GT_XoTkScu3wlVGMv-4" value="Controller" style="rounded=0;whiteSpace=wrap;html=1;" vertex="1" parent="1">
          <mxGeometry x="230" y="130" width="260" height="50" as="geometry" />
        </mxCell>
        <mxCell id="yM5GT_XoTkScu3wlVGMv-6" value="Motor Driver" style="rounded=0;whiteSpace=wrap;html=1;" vertex="1" parent="1">
          <mxGeometry x="400" y="260" width="90" height="50" as="geometry" />
        </mxCell>
        <mxCell id="yM5GT_XoTkScu3wlVGMv-25" style="edgeStyle=orthogonalEdgeStyle;rounded=0;orthogonalLoop=1;jettySize=auto;html=1;entryX=0;entryY=0.5;entryDx=0;entryDy=0;" edge="1" parent="1" source="yM5GT_XoTkScu3wlVGMv-8" target="yM5GT_XoTkScu3wlVGMv-4">
          <mxGeometry relative="1" as="geometry" />
        </mxCell>
        <mxCell id="yM5GT_XoTkScu3wlVGMv-8" value="Bin-Level Sensor (has food?)" style="rounded=0;whiteSpace=wrap;html=1;" vertex="1" parent="1">
          <mxGeometry x="50" y="130" width="90" height="50" as="geometry" />
        </mxCell>
        <mxCell id="yM5GT_XoTkScu3wlVGMv-21" style="edgeStyle=orthogonalEdgeStyle;rounded=0;orthogonalLoop=1;jettySize=auto;html=1;entryX=1;entryY=0.5;entryDx=0;entryDy=0;exitX=0;exitY=0.5;exitDx=0;exitDy=0;" edge="1" parent="1" source="yM5GT_XoTkScu3wlVGMv-9" target="yM5GT_XoTkScu3wlVGMv-4">
          <mxGeometry relative="1" as="geometry" />
        </mxCell>
        <mxCell id="yM5GT_XoTkScu3wlVGMv-9" value="Bowl Weight Sensor" style="rounded=0;whiteSpace=wrap;html=1;" vertex="1" parent="1">
          <mxGeometry x="580" y="130" width="90" height="50" as="geometry" />
        </mxCell>
        <mxCell id="yM5GT_XoTkScu3wlVGMv-12" value="" style="endArrow=classic;html=1;rounded=0;entryX=0.25;entryY=0;entryDx=0;entryDy=0;" edge="1" parent="1" target="yM5GT_XoTkScu3wlVGMv-6">
          <mxGeometry width="50" height="50" relative="1" as="geometry">
            <mxPoint x="423" y="180" as="sourcePoint" />
            <mxPoint x="320" y="410" as="targetPoint" />
          </mxGeometry>
        </mxCell>
        <mxCell id="yM5GT_XoTkScu3wlVGMv-15" value="Dispensing Mechanism" style="rounded=0;whiteSpace=wrap;html=1;" vertex="1" parent="1">
          <mxGeometry x="400" y="370" width="90" height="50" as="geometry" />
        </mxCell>
        <mxCell id="yM5GT_XoTkScu3wlVGMv-16" value="Event Log" style="rounded=0;whiteSpace=wrap;html=1;" vertex="1" parent="1">
          <mxGeometry x="230" y="370" width="90" height="50" as="geometry" />
        </mxCell>
        <mxCell id="yM5GT_XoTkScu3wlVGMv-24" style="edgeStyle=orthogonalEdgeStyle;rounded=0;orthogonalLoop=1;jettySize=auto;html=1;entryX=0;entryY=0.5;entryDx=0;entryDy=0;" edge="1" parent="1" source="yM5GT_XoTkScu3wlVGMv-17" target="yM5GT_XoTkScu3wlVGMv-16">
          <mxGeometry relative="1" as="geometry" />
        </mxCell>
        <mxCell id="yM5GT_XoTkScu3wlVGMv-17" value="Alert Module" style="rounded=0;whiteSpace=wrap;html=1;" vertex="1" parent="1">
          <mxGeometry x="110" y="370" width="90" height="50" as="geometry" />
        </mxCell>
        <mxCell id="yM5GT_XoTkScu3wlVGMv-18" value="" style="endArrow=classic;html=1;rounded=0;entryX=0.5;entryY=0;entryDx=0;entryDy=0;exitX=0.5;exitY=1;exitDx=0;exitDy=0;" edge="1" parent="1" source="yM5GT_XoTkScu3wlVGMv-6" target="yM5GT_XoTkScu3wlVGMv-15">
          <mxGeometry width="50" height="50" relative="1" as="geometry">
            <mxPoint x="224.57999999999998" y="260" as="sourcePoint" />
            <mxPoint x="224.57999999999998" y="300" as="targetPoint" />
          </mxGeometry>
        </mxCell>
        <mxCell id="yM5GT_XoTkScu3wlVGMv-22" style="edgeStyle=orthogonalEdgeStyle;rounded=0;orthogonalLoop=1;jettySize=auto;html=1;exitX=0.25;exitY=1;exitDx=0;exitDy=0;entryX=0.5;entryY=0;entryDx=0;entryDy=0;" edge="1" parent="1" source="yM5GT_XoTkScu3wlVGMv-4" target="yM5GT_XoTkScu3wlVGMv-17">
          <mxGeometry relative="1" as="geometry">
            <mxPoint x="160" y="330" as="targetPoint" />
            <Array as="points">
              <mxPoint x="240" y="180" />
              <mxPoint x="240" y="250" />
              <mxPoint x="155" y="250" />
            </Array>
          </mxGeometry>
        </mxCell>
        <mxCell id="yM5GT_XoTkScu3wlVGMv-26" style="edgeStyle=orthogonalEdgeStyle;rounded=0;orthogonalLoop=1;jettySize=auto;html=1;entryX=0.823;entryY=1.037;entryDx=0;entryDy=0;entryPerimeter=0;" edge="1" parent="1">
          <mxGeometry relative="1" as="geometry">
            <mxPoint x="470" y="260" as="sourcePoint" />
            <mxPoint x="468.98" y="181.85000000000002" as="targetPoint" />
            <Array as="points">
              <mxPoint x="470" y="220" />
              <mxPoint x="469" y="220" />
            </Array>
          </mxGeometry>
        </mxCell>
      </root>
    </mxGraphModel>
  </diagram>
</mxfile>
